<svg xmlns="http://www.w3.org/2000/svg" width="175.159" height="175.159" viewBox="0 0 175.159 175.159"><defs><style>.a{fill:#33b163;}</style></defs><g transform="translate(-3.375 -3.375)"><path class="a" d="M100.624,20.333l-7.411-7.621a1.593,1.593,0,0,0-1.179-.505h0a1.529,1.529,0,0,0-1.179.505L39.487,64.459,20.792,45.764a1.628,1.628,0,0,0-2.358,0L10.94,53.259a1.678,1.678,0,0,0,0,2.4L34.519,79.238a7.457,7.457,0,0,0,4.926,2.4,7.814,7.814,0,0,0,4.884-2.316h.042l56.3-56.59A1.8,1.8,0,0,0,100.624,20.333Z" transform="translate(35.215 44.053)"/><path class="a" d="M90.954,15.165a75.8,75.8,0,0,1,53.6,129.39,75.8,75.8,0,0,1-107.2-107.2,75.288,75.288,0,0,1,53.6-22.19m0-11.79a87.579,87.579,0,1,0,87.579,87.579A87.566,87.566,0,0,0,90.954,3.375Z" transform="translate(0 0)"/></g></svg>