<svg xmlns="http://www.w3.org/2000/svg" width="430.633" height="430.633" viewBox="0 0 430.633 430.633"><defs><style>.a{fill:#1a6daa;}.b{opacity:0.05;}.c{fill:#239ed5;}</style></defs><g transform="translate(-1291.684 -351.926)"><path class="a" d="M485.248,349.38A167.468,167.468,0,1,0,652.717,516.848,167.468,167.468,0,0,0,485.248,349.38Zm30.036,171.492v79.3h-59.2v-79.3a49.044,49.044,0,1,1,59.2,0Z" transform="translate(1021.752 50.394)"/><path class="b" d="M485.248,349.38A167.468,167.468,0,1,0,652.717,516.848,167.468,167.468,0,0,0,485.248,349.38Zm30.036,171.492v79.3h-59.2v-79.3a49.044,49.044,0,1,1,59.2,0Z" transform="translate(1021.752 50.394)"/><path class="c" d="M511.1,327.38c-118.916,0-215.317,96.4-215.317,215.316S392.18,758.013,511.1,758.013s215.317-96.4,215.316-215.317S630.013,327.38,511.1,327.38Zm38.6,220.493V649.811H473.579V547.873a63.073,63.073,0,1,1,76.122,0Z" transform="translate(995.904 24.546)"/></g></svg>