<svg xmlns="http://www.w3.org/2000/svg" width="315.432" height="100.492" viewBox="0 0 315.432 100.492"><defs><style>.a{fill:#308bad;}</style></defs><g transform="translate(-48.556 -115.688) rotate(-0.1)"><g transform="matrix(-0.777, 0.629, -0.629, -0.777, 1066.685, -1941.13)"><path class="a" d="M382.1,608.686a36.82,36.82,0,0,1-8.587,7.292l-3.859-3.25C373.258,609.61,378.463,606.254,382.1,608.686Z" transform="translate(1711.094 -1582.677)"/><path class="a" d="M367.874,574.221s9.186-9.957,15.893-7.485c0,0-7.856,10.33-17.127,10.6Z" transform="translate(1713.307 -1552.163)"/><path class="a" d="M385.772,531.14s10.153-9.536,14.568-7.859c0,0-7.329,10.6-15.011,9.978Z" transform="translate(1699.567 -1520.362)"/><path class="a" d="M402.31,484.873s8.741-11.39,13.509-10.508c0,0-5.3,10.153-13.509,11.655Z" transform="translate(1687.085 -1484.513)"/><path class="a" d="M418.118,436.962s7.727-8.741,11.9-8.712c0,0-6.092,11.655-12.216,11.559Z" transform="translate(1675.698 -1450.648)"/><path class="a" d="M440.1,304.533s1.234-15.188.44-16.423c0,0,5.337,12.624-.493,23.132Z" transform="translate(1659.342 -1347.629)"/><path class="a" d="M331.126,586.929l-5.663-4.768-.736-.62v-.1c-.185-1.563-.207-2.545-.207-2.545C328.008,579.173,330,583.008,331.126,586.929Z" transform="translate(1744.27 -1561.395)"/><path class="a" d="M348.8,552.708s-2.177-13.374-9.138-15.008c0,0,.863,12.95,8.452,18.277Z" transform="translate(1733.14 -1531.107)"/><path class="a" d="M376.389,509.525s-.074-13.927-4.331-15.975c0,0-2.649,12.608,3.1,17.747Z" transform="translate(1709.772 -1498.652)"/><path class="a" d="M389.168,468.157s-.6-14.346-5-16.367c0,0-1.51,11.353,4.344,17.3Z" transform="translate(1700.552 -1467.953)"/><path class="a" d="M409.6,425.484s-.029-11.655-3.179-14.4c0,0-3.131,12.78,1.528,16.751Z" transform="translate(1684.818 -1438.026)"/><path class="a" d="M415.669,369.771,412.61,350.35s-4.161,15.911,3.205,22.923Z" transform="translate(1680.374 -1393.383)"/><path class="a" d="M408.3,310.515s-7.859-13.053-7.7-14.515c0,0,.834,13.681,10.728,20.5Z" transform="translate(1688.342 -1353.429)"/><path class="a" d="M403.253,280.623s-7.417-18.542-10.773-20.043c0,0,10.6,5.388,11.39,19.514Z" transform="translate(1694.311 -1327.391)"/><path class="a" d="M416.2,369l-.506-.156c6.259-20.409,7.819-33.438,4.4-36.683l.366-.387C424.081,335.213,422.609,348.084,416.2,369Z" transform="translate(1677.249 -1379.724)"/><path class="a" d="M377.166,466.58l-.238.773-.175.575c-.021.056-.037.111-.053.167-.977,3.136-2.079,6.543-3.3,10.153-.228.686-.464,1.377-.7,2.077-.9,2.63-1.854,5.358-2.855,8.161-.138.395-.281.795-.424,1.187l-.026.064c-.238.668-.482,1.324-.728,2.01q-1.4,3.841-2.914,7.83c-.265.739-.562,1.478-.848,2.222-.217.567-.437,1.139-.66,1.711q-.079.215-.167.429-.723,1.867-1.47,3.756l-.638-.53q.63-1.589,1.25-3.163c.13-.331.265-.659.387-.988q.4-1.037.795-2.061l.024-.061q.281-.731.564-1.454,1.589-4.112,3.065-8.063l.358-.964c.122-.328.244-.654.363-.98.193-.53.384-1.033.572-1.547,1.009-2.749,1.968-5.422,2.869-8q.347-1,.681-1.971c1.134-3.284,2.164-6.4,3.078-9.316.17-.53.331-1.06.49-1.571a.449.449,0,0,1,.034-.111l.371-.188Z" transform="translate(1716.74 -1478.826)"/></g><g transform="translate(2705.17 -338.772) rotate(-171)"><path class="a" d="M505.152,739l-.3.342-.059-.05C504.911,739.191,505.031,739.09,505.152,739Z" transform="translate(1737.212 -1561.249)"/><path class="a" d="M522.758,676.65l-7.75,9.2h0a11.632,11.632,0,0,1-5.646,1.546q-.281,0-.561-.025l.062-.28.23-1.1.177-.842.208-.191c.146-.135.365-.334.648-.583l.468-.407h0C513.153,681.744,518.842,677.175,522.758,676.65Z" transform="translate(1734.326 -1516.388)"/><path class="a" d="M525.84,638.882s9.257-12.062,14.306-11.125c0,0-5.61,10.752-14.306,12.342Z" transform="translate(1722.066 -1481.172)"/><path class="a" d="M541.617,590.866s8.182-9.257,12.6-9.226c0,0-6.452,12.342-12.94,12.241Z" transform="translate(1710.957 -1448.029)"/><path class="a" d="M549.764,529.812l7.9-19.262s.4,17.414-8.906,22.836Z" transform="translate(1705.575 -1396.88)"/><path class="a" d="M563.643,458.891s1.31-16.084.468-17.391c0,0,5.649,13.369-.522,24.5Z" transform="translate(1694.905 -1347.198)"/><path class="a" d="M500.211,663.857s-.079-14.749-4.586-16.917c0,0-2.805,13.352,3.282,18.794Z" transform="translate(1744.27 -1495.012)"/><path class="a" d="M513,622.542s-.631-15.192-5.3-17.332c0,0-1.6,12.022,4.6,18.325Z" transform="translate(1735.247 -1464.987)"/><path class="a" d="M533.383,579.721s-.028-12.342-3.366-15.251c0,0-3.313,13.534,1.619,17.736Z" transform="translate(1719.844 -1435.675)"/><path class="a" d="M539.452,524.3l-3.24-20.564s-4.4,16.85,3.394,24.275Z" transform="translate(1715.495 -1391.98)"/><path class="a" d="M532.285,464.769s-8.323-13.823-8.151-15.369c0,0,.884,14.488,11.36,21.711Z" transform="translate(1723.296 -1352.883)"/><path class="a" d="M527.418,435.2s-7.854-19.635-11.408-21.226c0,0,11.22,5.7,12.062,20.665Z" transform="translate(1729.139 -1327.391)"/><path class="a" d="M539.756,524.579l-.536-.163c6.628-21.616,8.283-35.411,4.656-38.85l.387-.407C548.106,488.8,546.547,502.436,539.756,524.579Z" transform="translate(1712.439 -1378.612)"/><path class="a" d="M512.025,620c-.084.281-.168.547-.255.822h0c-.059.2-.121.393-.182.595h0c-.02.056-.039.115-.056.174-1.035,3.321-2.2,6.928-3.492,10.755h0q-.365,1.086-.743,2.2c-.951,2.783-1.964,5.672-3.024,8.642h0c-.146.418-.3.841-.449,1.254l-.022.059h0c-.255.707-.511,1.419-.774,2.135q-1.153,3.172-2.379,6.438l-.648-.53q1.226-3.2,2.384-6.3l.379-1.021c.129-.348.258-.693.384-1.038.2-.561.407-1.094.606-1.638q1.6-4.37,3.041-8.474c.241-.7.482-1.4.718-2.079h0c1.2-3.481,2.295-6.78,3.262-9.865.174-.561.342-1.094.5-1.63.017-.051.034-.1.048-.151l.393-.2Z" transform="translate(1740.658 -1475.629)"/></g><g transform="translate(1356.274 -1797.881) rotate(140)"><path class="a" d="M431.074,624.146s4.349-41.465,7.117-44.386c0,0-20.729,31.253-10.372,62.455Z" transform="translate(1744.27 -1332.317)"/><path class="a" d="M449.222,681.734l-6.762-5.69,10.785-30.274S454.549,664.426,449.222,681.734Z" transform="translate(1739.443 -1350.484)"/><path class="a" d="M439.436,630.318s27.73-31.13,28.035-35.138c0,0-9.161,36.37-39.211,49.706Z" transform="translate(1743.351 -1336.561)"/><path class="a" d="M442.472,610.312s29.318-46.111,39.1-48.452c0,0-31.216,9.132-40.494,46.72Z" transform="translate(1739.823 -1327.391)"/><path class="a" d="M439.93,625.443a9.868,9.868,0,0,0-1.6,1.3c-3.762,3.74-6.313,11.524-7.646,22.99-.08.725-.152,1.384-.217,2.1q-.5,5-.725,10.872l-1.45-1.2c.109-2.457.246-4.8.428-7.03.051-.63.1-1.261.159-1.877l.065-.616A80.384,80.384,0,0,1,432.1,635.2c1.45-4.414,3.261-7.675,5.472-9.748a10.771,10.771,0,0,1,1.544-1.21Z" transform="translate(1743.343 -1344.559)"/></g><g transform="translate(1385.144 -1783.867) rotate(144)"><path class="a" d="M268.416,519.551S260.468,505.1,254.7,503.83c0,0,4.793,17.988,13.27,19.75Z" transform="translate(1744.27 -1419.858)"/><path class="a" d="M279.192,463.421,274.549,436s-5.621,22.576,4.906,32.375Z" transform="translate(1732.797 -1377.448)"/><path class="a" d="M289.6,394.734s3-21.361,4.5-22.8c0,0-11.292,15.77-6.513,32.083Z" transform="translate(1724.447 -1337.388)"/><path class="a" d="M313.177,544.2a43.214,43.214,0,0,1-4.01,13.844L305,554.517C307.11,549.675,309.981,544.875,313.177,544.2Z" transform="translate(1712.82 -1445.099)"/><path class="a" d="M288.08,517.962s3.665-16.085,8.859-18.892c0,0,.345,18.611-7.319,22.643Z" transform="translate(1723.399 -1416.881)"/><path class="a" d="M289.129,464.218,299.39,438.36s.8,23.254-11.55,30.64Z" transform="translate(1723.55 -1378.923)"/><path class="a" d="M295.011,406.36s14.908-15.575,15.137-17.64c0,0-5.4,18.622-21.178,24.963Z" transform="translate(1722.843 -1347.886)"/><path class="a" d="M303.75,380.254s16-23.284,21.1-24.314c0,0-16.3,4.141-21.789,23.392Z" transform="translate(1714.033 -1327.391)"/><path class="a" d="M288.557,469.054l.75-.056c-2.309-30.127-.4-48.6,5.337-52.013l-.375-.645C288.178,419.96,286.211,438.185,288.557,469.054Z" transform="translate(1723.702 -1365.155)"/><path class="a" d="M290.752,554.165c.019.236.037.476.06.716L290,554.2c-.026-.315-.049-.626-.075-.933a1,1,0,0,0-.019-.236h0c-.022-.285-.041-.562-.064-.843h0c-.022-.3-.045-.6-.071-.892v-.251h0l.341.281.453.375v.082a.58.58,0,0,1,0,.082c.026.315.049.633.075.952v.2Q290.7,553.573,290.752,554.165Z" transform="translate(1722.343 -1449.375)"/></g><g transform="matrix(0.799, 0.602, -0.602, 0.799, 235.594, 112.069)"><path class="a" d="M17.08,15.542S12.219,5.661,3.947,0L0,3.327C4.578,8.685,12.089,16.343,17.08,15.542Z" transform="translate(12.229 0)"/><path class="a" d="M.4,4.536s11.954,14.178,18.588,14.3C18.984,18.836,9.717.072,0,0Z" transform="translate(14.31 16.284)"/><path class="a" d="M1.386,5.4l11.17,29.194S13.773,8.479,0,0Z" transform="translate(17.124 30.39)"/><path class="a" d="M0,10.682S1.39,34.871.08,36.8c0,0,8.959-19.872.093-36.8Z" transform="translate(22.565 57.107)"/><path class="a" d="M7.71,0,.516,6.061A49.5,49.5,0,0,0,.17,17.286C4.353,15.488,6.581,6.807,7.71,0Z" transform="translate(0 7.131)"/><path class="a" d="M6.912,3.8s-.48,18.533-5.585,22.774c0,0-4.494-20.437,3.062-26.57Z" transform="translate(8.818 15.235)"/><path class="a" d="M7.106,5.568l-5.6,30.748S-4.5,10.867,7.473,0Z" transform="translate(10.788 31.118)"/><path class="a" d="M12.786,9.406S-.2,29.859,0,32.188C0,32.188,1.847,10.467,17.828,0Z" transform="translate(5.332 57.987)"/><path class="a" d="M17.88,0S5.391,29.2,0,31.455c0,0,17.046-8.163,18.845-30.592Z" transform="translate(1.556 73.55)"/><path class="a" d="M.809,0,0,.227C9.178,32.913,11.17,53.682,5.606,58.711l.564.628C12.067,54,10.214,33.486.809,0Z" transform="translate(13.442 16.107)"/><path class="a" d="M4.831,14.018c-.114-.421-.232-.842-.35-1.238h0c-.08-.3-.164-.607-.253-.914q-.042-.131-.076-.265C3.108,7.948,1.967,4.069.729,0L0,.615H0q1.643,5.3,3.041,10.164h0c.206.691.4,1.373.59,2.047.042.156.088.312.131.468a.928.928,0,0,0,.051.177l.585.312Z" transform="translate(10.094 4.52)"/></g></g></svg>